<svg width="64" height="62" viewBox="0 0 64 62" fill="none" xmlns="http://www.w3.org/2000/svg">
<path opacity="0.5" d="M63.9832 1.32785L47.0383 61.6137C46.9521 61.8874 46.6075 61.9695 46.4064 61.7779L35.062 50.9686L43.5631 20.7572C43.6493 20.4836 43.3908 20.2373 43.1036 20.3194L11.3966 28.4195L0.109567 17.665C-0.0914744 17.4734 -0.00531443 17.145 0.281887 17.0629L63.5236 0.890008C63.8108 0.835277 64.0693 1.08157 63.9832 1.32785Z" fill="#00B37E"/>
<path opacity="0.5" d="M37.3058 46.9105L33.2665 61.2817C33.1868 61.5339 32.8679 61.6095 32.6818 61.433L0.101381 30.5474C-0.0846408 30.3709 -0.00491742 30.0684 0.260829 29.9928L15.4084 26.1352L37.3058 46.9105Z" fill="#00B37E"/>
<path d="M45.1711 19.0756L37.305 46.9105L15.4076 26.1352L44.7459 18.6722C45.0117 18.5966 45.2508 18.8235 45.1711 19.0756Z" fill="#00B37E"/>
</svg>
